<?xml version="1.0" encoding="UTF-8"?><svg id="a" xmlns="http://www.w3.org/2000/svg" width="44" height="44" viewBox="0 0 44 44"><g><circle cx="38" cy="38" r="5.5" fill="#f3b500"/><path d="M38,33c2.76,0,5,2.24,5,5s-2.24,5-5,5-5-2.24-5-5,2.24-5,5-5m0-1c-3.31,0-6,2.69-6,6s2.69,6,6,6,6-2.69,6-6-2.69-6-6-6h0Z" fill="#666"/></g><g><circle cx="6" cy="38" r="5.5" fill="#f3b500"/><path d="M6,33c2.76,0,5,2.24,5,5s-2.24,5-5,5-5-2.24-5-5,2.24-5,5-5m0-1c-3.31,0-6,2.69-6,6s2.69,6,6,6,6-2.69,6-6-2.69-6-6-6h0Z" fill="#666"/></g><line x1="11.2" y1="37.86" x2="33" y2="37.86" fill="#f3b500" stroke="#666" stroke-miterlimit="10"/></svg>